<svg xmlns="http://www.w3.org/2000/svg" xmlns:xlink="http://www.w3.org/1999/xlink" width="500" zoomAndPan="magnify" viewBox="0 0 375 374.999991" height="500" preserveAspectRatio="xMidYMid meet" version="1.0"><defs><g/></defs><g fill="#ffffff" fill-opacity="1"><g transform="translate(36.691792, 212.869575)"><g><path d="M 41.976562 -21.730469 C 41.976562 -17.480469 40.496094 -13.730469 37.53125 -10.667969 C 34.570312 -7.507812 30.914062 -5.925781 26.667969 -5.925781 C 22.320312 -5.925781 18.667969 -7.507812 15.703125 -10.667969 C 12.742188 -13.730469 11.359375 -17.480469 11.359375 -21.730469 C 11.359375 -25.878906 12.742188 -29.632812 15.703125 -32.792969 C 18.667969 -35.953125 22.320312 -37.53125 26.667969 -37.53125 C 30.914062 -37.53125 34.570312 -35.953125 37.53125 -32.792969 C 40.496094 -29.632812 41.976562 -25.878906 41.976562 -21.730469 Z M 48.890625 0 L 48.890625 -43.457031 L 41.976562 -43.457031 L 41.976562 -35.953125 C 41.582031 -36.542969 41.089844 -37.039062 40.691406 -37.53125 C 36.542969 -42.074219 31.507812 -44.445312 25.582031 -44.445312 C 19.554688 -44.445312 14.519531 -42.074219 10.371094 -37.53125 C 6.421875 -32.988281 4.445312 -27.753906 4.445312 -21.730469 C 4.445312 -15.605469 6.421875 -10.371094 10.371094 -5.925781 C 14.519531 -1.285156 19.554688 0.988281 25.582031 0.988281 C 31.507812 0.988281 36.542969 -1.285156 40.691406 -5.925781 C 41.089844 -6.320312 41.582031 -6.816406 41.976562 -7.40625 L 41.976562 0 Z M 48.890625 0 "/></g></g></g><g fill="#ffffff" fill-opacity="1"><g transform="translate(92.980837, 212.869575)"><g/></g></g><g fill="#ffffff" fill-opacity="1"><g transform="translate(119.644056, 212.869575)"><g><path d="M 14.320312 0 L 14.320312 -20.839844 L 31.410156 0 L 40.59375 0 L 21.53125 -22.421875 L 39.410156 -43.558594 L 30.222656 -43.558594 L 14.320312 -23.902344 L 14.320312 -74.078125 L 7.40625 -74.078125 L 7.40625 0 Z M 14.320312 0 "/></g></g></g><g fill="#ffffff" fill-opacity="1"><g transform="translate(161.218943, 212.869575)"><g/></g></g><g fill="#ffffff" fill-opacity="1"><g transform="translate(187.882162, 212.869575)"><g><path d="M 1.976562 -37.039062 L 12.839844 -37.039062 L 12.839844 0 L 19.753906 0 L 19.753906 -37.039062 L 30.519531 -37.039062 L 30.519531 -43.457031 L 19.753906 -43.457031 L 19.753906 -60.347656 L 12.839844 -60.347656 L 12.839844 -43.457031 L 1.976562 -43.457031 Z M 1.976562 -37.039062 "/></g></g></g><g fill="#ffffff" fill-opacity="1"><g transform="translate(220.371799, 212.869575)"><g/></g></g><g fill="#ffffff" fill-opacity="1"><g transform="translate(247.035019, 212.869575)"><g><path d="M 14.421875 -58.472656 C 13.53125 -59.261719 12.445312 -59.753906 11.257812 -59.753906 C 10.074219 -59.753906 8.988281 -59.261719 8.199219 -58.472656 C 7.308594 -57.582031 6.914062 -56.496094 6.914062 -55.3125 C 6.914062 -54.125 7.308594 -53.039062 8.199219 -52.25 C 8.988281 -51.359375 10.074219 -50.964844 11.257812 -50.964844 C 12.445312 -50.964844 13.53125 -51.359375 14.421875 -52.25 C 15.210938 -53.039062 15.703125 -54.125 15.703125 -55.3125 C 15.703125 -56.496094 15.210938 -57.582031 14.421875 -58.472656 Z M 14.816406 0 L 14.816406 -43.457031 L 7.902344 -43.457031 L 7.902344 0 Z M 14.816406 0 "/></g></g></g><g fill="#ffffff" fill-opacity="1"><g transform="translate(269.649387, 212.869575)"><g/></g></g><g fill="#ffffff" fill-opacity="1"><g transform="translate(296.312607, 212.869575)"><g><path d="M 21.039062 4.148438 L 40.988281 -43.457031 L 33.484375 -43.457031 L 21.039062 -11.160156 L 8.496094 -43.457031 L 0.988281 -43.457031 Z M 21.039062 4.148438 "/></g></g></g></svg>